<svg width="24" height="25" viewBox="0 0 24 25" fill="none" xmlns="http://www.w3.org/2000/svg">
<path fill-rule="evenodd" clip-rule="evenodd" d="M12 3.65074C10.1472 3.65074 8.64516 5.19047 8.64516 7.08982C8.64516 8.98917 10.1472 10.5289 12 10.5289C13.8528 10.5289 15.3548 8.98917 15.3548 7.08982C15.3548 5.19047 13.8528 3.65074 12 3.65074ZM7.09677 7.08982C7.09677 4.31385 9.29202 2.06348 12 2.06348C14.708 2.06348 16.9032 4.31385 16.9032 7.08982C16.9032 9.8658 14.708 12.1162 12 12.1162C9.29202 12.1162 7.09677 9.8658 7.09677 7.08982Z" fill="black"/>
<path fill-rule="evenodd" clip-rule="evenodd" d="M9.46618 15.8198C7.30244 15.8198 5.54839 17.6179 5.54839 19.836C5.54839 19.9524 5.56915 20.0346 5.59092 20.0825C5.60929 20.1229 5.62506 20.1344 5.63821 20.1417C6.23988 20.4774 7.92682 21.1107 12 21.1107C16.0732 21.1107 17.7601 20.4774 18.3618 20.1417C18.3749 20.1344 18.3907 20.1229 18.4091 20.0825C18.4309 20.0346 18.4516 19.9524 18.4516 19.836C18.4516 17.6179 16.6976 15.8198 14.5338 15.8198H9.46618ZM4 19.836C4 16.7413 6.44729 14.2325 9.46618 14.2325H14.5338C17.5527 14.2325 20 16.7413 20 19.836C20 20.4041 19.7994 21.1469 19.1019 21.5359C18.1779 22.0513 16.1959 22.6979 12 22.6979C7.80414 22.6979 5.82206 22.0513 4.89812 21.5359C4.20063 21.1469 4 20.4041 4 19.836Z" fill="black"/>
</svg>
